<?xml version="1.0" encoding="iso-8859-1"?>
<!-- Uploaded to: SVG Repo, www.svgrepo.com, Generator: SVG Repo Mixer Tools -->
<svg height="800px" width="800px" version="1.1" id="Layer_1" xmlns="http://www.w3.org/2000/svg" xmlns:xlink="http://www.w3.org/1999/xlink" 
	 viewBox="0 0 512 512" xml:space="preserve">
<path style="fill:#ECF1F1;" d="M370.759,97.103c0-24.373,19.765-44.138,44.138-44.138H17.655C7.901,52.966,0,60.866,0,70.621
	v423.724C0,504.099,7.901,512,17.655,512h335.448c9.754,0,17.655-7.901,17.655-17.655V97.103z"/>
<g>
	<path style="fill:#CDCFCF;" d="M485.517,432.552c14.627,0,26.483-11.855,26.483-26.483V88.276V17.655
		C512,7.901,504.099,0,494.345,0H105.931c-9.754,0-17.655,7.901-17.655,17.655v35.31h326.621l0,0
		c24.373,0,44.138,19.756,44.138,44.138l0,0l0,0v308.966C459.034,420.696,470.89,432.552,485.517,432.552"/>
	<path style="fill:#CDCFCF;" d="M414.897,494.345c-4.882,0-8.828-3.955-8.828-8.828V97.103c0-4.873,3.946-8.828,8.828-8.828
		c4.882,0,8.828,3.955,8.828,8.828v388.414C423.724,490.39,419.778,494.345,414.897,494.345"/>
</g>
<path style="fill:#8697CB;" d="M282.483,194.207c0,53.628-43.476,97.103-97.103,97.103s-97.103-43.476-97.103-97.103
	s43.476-97.103,97.103-97.103S282.483,140.579,282.483,194.207"/>
<g>
	<path style="fill:#556080;" d="M185.379,105.931c-48.675,0-88.276,39.601-88.276,88.276s39.601,88.276,88.276,88.276
		s88.276-39.601,88.276-88.276S234.055,105.931,185.379,105.931 M185.379,300.138c-58.412,0-105.931-47.519-105.931-105.931
		S126.967,88.276,185.379,88.276S291.31,135.795,291.31,194.207S243.791,300.138,185.379,300.138"/>
	<path style="fill:#556080;" d="M185.379,105.931c-17.364,0-44.138,37.906-44.138,88.276s26.774,88.276,44.138,88.276
		s44.138-37.906,44.138-88.276S202.743,105.931,185.379,105.931 M185.379,300.138c-32.335,0-61.793-50.494-61.793-105.931
		s29.458-105.931,61.793-105.931s61.793,50.494,61.793,105.931S217.715,300.138,185.379,300.138"/>
	<path style="fill:#556080;" d="M282.483,203.034H88.276c-4.882,0-8.828-3.955-8.828-8.828s3.946-8.828,8.828-8.828h194.207
		c4.882,0,8.828,3.955,8.828,8.828S287.364,203.034,282.483,203.034"/>
</g>
<g>
	<path style="fill:#CDCFCF;" d="M203.034,344.276H44.138c-4.882,0-8.828-3.955-8.828-8.828s3.946-8.828,8.828-8.828h158.897
		c4.882,0,8.828,3.955,8.828,8.828S207.916,344.276,203.034,344.276"/>
	<path style="fill:#CDCFCF;" d="M167.724,476.69H44.138c-4.882,0-8.828-3.955-8.828-8.828s3.946-8.828,8.828-8.828h123.586
		c4.882,0,8.828,3.955,8.828,8.828S172.606,476.69,167.724,476.69"/>
	<path style="fill:#CDCFCF;" d="M326.621,476.69H220.69c-4.882,0-8.828-3.955-8.828-8.828s3.946-8.828,8.828-8.828h105.931
		c4.882,0,8.828,3.955,8.828,8.828S331.502,476.69,326.621,476.69"/>
	<path style="fill:#CDCFCF;" d="M150.069,388.414H44.138c-4.882,0-8.828-3.955-8.828-8.828s3.946-8.828,8.828-8.828h105.931
		c4.882,0,8.828,3.955,8.828,8.828S154.951,388.414,150.069,388.414"/>
	<path style="fill:#CDCFCF;" d="M326.621,344.276H256c-4.882,0-8.828-3.955-8.828-8.828s3.946-8.828,8.828-8.828h70.621
		c4.882,0,8.828,3.955,8.828,8.828S331.502,344.276,326.621,344.276"/>
	<path style="fill:#CDCFCF;" d="M326.621,388.414H203.034c-4.882,0-8.828-3.955-8.828-8.828s3.946-8.828,8.828-8.828h123.586
		c4.882,0,8.828,3.955,8.828,8.828S331.502,388.414,326.621,388.414"/>
	<path style="fill:#CDCFCF;" d="M97.103,432.552H44.138c-4.882,0-8.828-3.955-8.828-8.828c0-4.873,3.946-8.828,8.828-8.828h52.966
		c4.882,0,8.828,3.955,8.828,8.828C105.931,428.597,101.985,432.552,97.103,432.552"/>
	<path style="fill:#CDCFCF;" d="M220.69,432.552h-70.621c-4.882,0-8.828-3.955-8.828-8.828c0-4.873,3.946-8.828,8.828-8.828h70.621
		c4.882,0,8.828,3.955,8.828,8.828C229.517,428.597,225.571,432.552,220.69,432.552"/>
	<path style="fill:#CDCFCF;" d="M326.621,432.552h-52.966c-4.882,0-8.828-3.955-8.828-8.828c0-4.873,3.946-8.828,8.828-8.828h52.966
		c4.882,0,8.828,3.955,8.828,8.828C335.448,428.597,331.502,432.552,326.621,432.552"/>
</g>
<path style="fill:#556080;" d="M185.379,300.138c-4.882,0-8.828-3.955-8.828-8.828V97.103c0-4.873,3.946-8.828,8.828-8.828
	c4.882,0,8.828,3.955,8.828,8.828V291.31C194.207,296.183,190.261,300.138,185.379,300.138"/>
</svg>