<?xml version="1.0" encoding="iso-8859-1"?>
<!-- Uploaded to: SVG Repo, www.svgrepo.com, Generator: SVG Repo Mixer Tools -->
<svg height="800px" width="800px" version="1.1" id="Layer_1" xmlns="http://www.w3.org/2000/svg" xmlns:xlink="http://www.w3.org/1999/xlink" 
	 viewBox="0 0 512 512" xml:space="preserve">
<path style="fill:#CDCFCF;" d="M467.862,512L467.862,512c-24.373,0-44.138-19.765-44.138-44.138V282.483h70.541
	c9.799,0,17.735,7.936,17.735,17.735v167.645C512,492.235,492.235,512,467.862,512"/>
<path style="fill:#ECF1F1;" d="M423.724,467.862v-44.138V211.862V17.735C423.724,7.936,415.788,0,405.99,0H17.735
	C7.936,0,0,7.936,0,17.735v476.531C0,504.064,7.936,512,17.735,512h450.127C443.489,512,423.724,492.235,423.724,467.862"/>
<polygon style="fill:#8697CB;" points="44.138,238.345 238.345,238.345 238.345,44.138 44.138,44.138 "/>
<g>
	<path style="fill:#B5C3E8;" d="M203.034,223.4c0-32.327-23.64-61.193-55.826-64.221c-1.977-0.185-3.972-0.282-5.967-0.282
		s-3.99,0.097-5.967,0.282c-32.185,3.028-55.826,31.894-55.826,64.221v14.945h123.586V223.4z"/>
	<path style="fill:#B5C3E8;" d="M176.552,123.586c0,19.5-15.81,35.31-35.31,35.31s-35.31-15.81-35.31-35.31s15.81-35.31,35.31-35.31
		S176.552,104.086,176.552,123.586"/>
</g>
<g>
	<polygon style="fill:#CDCFCF;" points="282.483,79.448 379.586,79.448 379.586,44.138 282.483,44.138 	"/>
	<polygon style="fill:#CDCFCF;" points="282.483,158.897 379.586,158.897 379.586,123.586 282.483,123.586 	"/>
	<polygon style="fill:#CDCFCF;" points="282.483,238.345 379.586,238.345 379.586,203.034 282.483,203.034 	"/>
	<path style="fill:#CDCFCF;" d="M379.586,291.31H44.138c-4.873,0-8.828-3.955-8.828-8.828c0-4.873,3.955-8.828,8.828-8.828h335.448
		c4.873,0,8.828,3.955,8.828,8.828C388.414,287.356,384.459,291.31,379.586,291.31"/>
	<path style="fill:#CDCFCF;" d="M185.379,335.448H44.138c-4.873,0-8.828-3.955-8.828-8.828c0-4.873,3.955-8.828,8.828-8.828h141.241
		c4.873,0,8.828,3.955,8.828,8.828C194.207,331.493,190.252,335.448,185.379,335.448"/>
	<path style="fill:#CDCFCF;" d="M379.586,335.448H238.345c-4.873,0-8.828-3.955-8.828-8.828c0-4.873,3.955-8.828,8.828-8.828
		h141.241c4.873,0,8.828,3.955,8.828,8.828C388.414,331.493,384.459,335.448,379.586,335.448"/>
	<path style="fill:#CDCFCF;" d="M185.379,379.586H44.138c-4.873,0-8.828-3.955-8.828-8.828c0-4.873,3.955-8.828,8.828-8.828h141.241
		c4.873,0,8.828,3.955,8.828,8.828C194.207,375.631,190.252,379.586,185.379,379.586"/>
	<path style="fill:#CDCFCF;" d="M379.586,379.586H238.345c-4.873,0-8.828-3.955-8.828-8.828c0-4.873,3.955-8.828,8.828-8.828
		h141.241c4.873,0,8.828,3.955,8.828,8.828C388.414,375.631,384.459,379.586,379.586,379.586"/>
	<path style="fill:#CDCFCF;" d="M185.379,423.724H44.138c-4.873,0-8.828-3.955-8.828-8.828s3.955-8.828,8.828-8.828h141.241
		c4.873,0,8.828,3.955,8.828,8.828S190.252,423.724,185.379,423.724"/>
	<path style="fill:#CDCFCF;" d="M379.586,423.724H238.345c-4.873,0-8.828-3.955-8.828-8.828s3.955-8.828,8.828-8.828h141.241
		c4.873,0,8.828,3.955,8.828,8.828S384.459,423.724,379.586,423.724"/>
	<path style="fill:#CDCFCF;" d="M185.379,467.862H44.138c-4.873,0-8.828-3.955-8.828-8.828s3.955-8.828,8.828-8.828h141.241
		c4.873,0,8.828,3.955,8.828,8.828S190.252,467.862,185.379,467.862"/>
	<path style="fill:#CDCFCF;" d="M379.586,467.862H238.345c-4.873,0-8.828-3.955-8.828-8.828s3.955-8.828,8.828-8.828h141.241
		c4.873,0,8.828,3.955,8.828,8.828S384.459,467.862,379.586,467.862"/>
</g>
</svg>